<?xml version="1.0" encoding="UTF-8"?>
<svg xmlns="http://www.w3.org/2000/svg" version="1.1" viewBox="0 0 688.99 179.8">
  <defs>
    <style>
      .cls-1 {
        fill: #fdfdfe;
      }

      .cls-2 {
        fill: #4f7fa5;
      }

      .cls-3 {
        fill: #37b7fe;
      }

      .cls-4 {
        fill: #5774fe;
      }

      .cls-5 {
        fill: #60e0e6;
      }

      .cls-6 {
        fill: #1566a7;
      }
    </style>
  </defs>
  <!-- Generator: Adobe Illustrator 28.6.0, SVG Export Plug-In . SVG Version: 1.2.0 Build 709)  -->
  <g>
    <g id="Layer_1">
      <g>
        <path class="cls-1" d="M344.42.06C458.47.06,572.52.06,686.57,0c2.04,0,2.43.42,2.43,2.43-.07,59.12-.06,118.25-.01,177.37,0,1.74-.29,2.2-2.15,2.2-228.27-.06-456.53-.05-684.8,0-1.72,0-2.04-.35-2.04-2.05C.06,120.74.06,61.53,0,2.33,0,.51.35,0,2.27,0c114.05.06,228.1.05,342.15.05ZM505.4,139.04c.09.33.29.55.62.39.14-.07.18-.34.27-.51.03-3.15.05-6.29.08-9.44.57-.69.35-1.2-.36-1.6-1.38.09-.84,1.13-.88,1.84-.11,2.36.27,4.74-.25,7.09-2.39,2.26-2.82,2.28-4.52.19.02-2.65.04-5.29.04-7.94,0-.54.13-1.27-.73-1.29-.53-.01-.59.47-.6.9-.06,0-.11,0-.17.01.05.06.11.12.16.19.14,2.85-.24,5.71.23,8.54.71,2.27,2.01,2.98,4.11,2.26.66-.23,1.17-.94,2.01-.6h0ZM597.97,129.53c2.56-1.02,3.33-.58,3.45,2.11.08,2-.02,4,.05,5.99.02.67-.41,1.86.59,1.87,1.19.01.76-1.25.78-1.99.06-2-.08-4.01.08-5.99.12-1.44,1.03-2.57,2.57-2.57,1.74,0,1.49,1.49,1.52,2.6.06,2.25.02,4.5.04,6.74,0,.51.04,1.11.66,1.16.66.05.74-.55.74-1.06-.01-2.83.1-5.67-.11-8.49-.17-2.27-2.12-3.16-4.22-2.14-.57.28-1.19,1.22-1.71.67-1.82-1.93-3.66-.58-5.51-.27-1.53-1.05-1.18.39-1.19.99-.03,2.82,0,5.64.07,8.46.02.66-.38,1.83.69,1.78.93-.04.52-1.19.6-1.86.32-2.67-.74-5.49.92-8.01ZM51.93,175.27c17.36-4.01,33.97-10.03,49.78-18.28,17.75-9.27,34.23-20.29,47.98-35.01,9.12-9.77,16.77-20.49,20.03-33.74,3.2-13.03.12-24.28-10.14-33.14-6.76-5.83-14.92-8.94-23.53-10.95-4.69-1.09-9.44-1.68-14.27-1.79,3.78,1.62,7.5,3.26,11.14,5.11,13.23,6.72,20.61,21.09,18.31,35.75-1.77,11.26-7.07,20.87-13.82,29.77-10.56,13.95-23.66,25.2-37.93,35.18-14.93,10.44-30.78,19.21-47.55,26.32-1,.01-1.83.37-2.52,1.19.98.37,1.79.15,2.53-.42ZM55.65,158.87c4.54,0,8.13-.1,11.7.03,2.81.1,5.22-.52,7.74-1.95,15.61-8.89,30.44-18.83,43.47-31.28,9.69-9.26,18.39-19.31,23.73-31.8,3.69-8.64,5.47-17.55,1.67-26.63-2.44-5.82-6.15-10.97-12.21-13.25-11.93-4.5-24.09-4.46-36.18-.32-4.81,1.64-4.79,1.69-4.94,6.71-.15,4.93-3.26,8.02-8.24,8.13-2.08.05-4.16.01-6.25.01-3.98,0-5.67,1.7-5.68,5.71,0,2,.04,4-.02,5.99-.15,4.69-3.26,7.77-7.92,7.86-2.66.05-5.33.03-8,.01-5.48-.03-8.07-2.35-8.56-7.85-.12-1.29-.56-1.77-1.82-1.71-3.5.18-6.98.62-10.32,1.63-17.23,5.24-29.76,21.45-28.79,40.86.86,17.19,13.81,32.7,31.2,36.79,6.76,1.59,13.59.79,19.43,1.06ZM111.37,158.4c.05.16.1.31.16.47.48,0,.96,0,1.45,0,16.65,0,33.3.08,49.95-.03,7.98-.05,15.98.57,23.94-.44,20.64-2.62,36.68-21.87,34.66-42.6-1.41-14.52-8.43-25.31-21.05-32.47-6.61-3.75-13.82-5.09-21.38-4.72-1.7.08-2.75.48-2.66,2.61.08,1.88-.32,3.8-.67,5.68-2.3,12.27-8.49,22.63-16.14,32.21-9.97,12.47-22.13,22.51-35.4,31.27-4.22,2.78-8.57,5.36-12.87,8.04ZM552.17,85.51c.33-13.83-9.31-23.71-23.42-24-10.84-.22-19.81,5.76-22.99,15.35-3.49,10.51-.22,22.12,8.19,27.96,7.39,5.14,15.5,5.43,23.85,2.67,1.04-.34,1.9-.79,2.95.17,1.38,1.27,2.66,3.73,4.3,3.36,1.63-.36,2.85-2.6,4.24-4.01.29-.3.56-.61.86-.91,2.35-2.35,2.41-2.42-.14-4.51-1.52-1.25-1.97-2.29-.8-4.13,2.3-3.61,2.82-7.76,2.94-11.96ZM425.99,88.72c-.19.04-.38.08-.57.12-.25-.32-.52-.62-.74-.96-3.8-6.06-7.66-12.08-11.36-18.21-4.32-7.15-4.26-7.19-12.69-7.13-.42,0-.84.01-1.25-.03-1.33-.15-1.94.28-1.94,1.77.04,14.06.04,28.12,0,42.18,0,1.34.47,1.72,1.74,1.68,2.24-.08,4.49-.13,6.73.01,1.83.12,2.22-.63,2.21-2.3-.08-7.15-.05-14.3,0-21.45,0-.82-.42-1.8.6-2.59.54.8,1.06,1.53,1.54,2.28,4.6,7.32,9.25,14.62,13.75,22.01.96,1.57,2.01,2.17,3.8,2.05,2.23-.14,4.49-.1,6.73-.01,1.52.06,2.22-.29,2.21-2.05-.07-12.73,0-25.45-.05-38.18-.02-5.42-.11-5.42-5.6-5.41q-5.01,0-5.1,5.12c-.02.91,0,1.83,0,2.74,0,6.12,0,12.24,0,18.36ZM267.71,85.24c0,6.99.04,13.98-.03,20.96-.02,1.53.44,2.06,1.98,1.98,2.24-.11,4.5-.1,6.74,0,1.51.07,2.05-.44,2.01-1.99-.09-3.99-.07-7.99,0-11.98.02-.94-.66-2.44,1.04-2.59,1.56-.14,3.31-.62,4.28,1.47,1.19,2.56,2.53,5.05,3.95,7.49,1.45,2.49,1.91,6.14,4.45,7.24,2.46,1.06,5.73.21,8.63.36,2.21.11,2.08-.66,1.22-2.24-2.43-4.45-4.74-8.97-7.12-13.45-.54-1.01-1.07-1.88.49-2.58,6.76-3.04,8.58-10.57,7.09-16.97-1.47-6.28-6.32-10.03-13.6-10.28-6.4-.22-12.81-.05-19.21-.18-1.86-.04-1.96.88-1.95,2.3.04,6.82.02,13.64.02,20.47ZM445.27,85.34c0,6.91.05,13.81-.03,20.72-.02,1.64.47,2.2,2.12,2.09,2.16-.13,4.33-.13,6.49,0,1.69.1,2.13-.57,2.1-2.17-.09-4.16-.04-8.32-.02-12.48,0-.7-.26-1.76.77-1.83,1.7-.11,3.59-.84,4.62,1.64,1.05,2.52,2.52,4.87,3.87,7.25,1.39,2.45,1.95,6,4.26,7.12,2.37,1.16,5.69.3,8.6.45,1.99.1,2.58-.26,1.46-2.27-2.48-4.43-4.75-8.97-7.14-13.44-.57-1.06-.86-1.77.57-2.57,6.28-3.52,8.8-9.63,7.12-16.74-1.48-6.27-6.35-10.2-13.49-10.45-6.48-.23-12.98-.07-19.47-.19-1.72-.03-1.85.81-1.85,2.14.04,6.91.02,13.81.02,20.72ZM348.97,85.56c0-6.9-.07-13.81.04-20.71.03-1.91-.59-2.49-2.43-2.36-2.07.14-4.16.13-6.23.02-1.54-.08-2.04.48-2.02,1.99.07,4.49-.02,8.98.05,13.46.02,1.45-.37,2.11-1.96,2.09-4.66-.08-9.32-.08-13.98,0-1.53.03-2.03-.49-2-2.01.08-4.32-.05-8.65.06-12.97.05-1.89-.4-2.78-2.48-2.58-1.9.18-3.83.2-5.73.04-1.97-.16-2.57.49-2.56,2.49.08,13.64.07,27.28,0,40.92,0,1.72.46,2.42,2.23,2.3,1.99-.13,4-.2,5.99-.07,1.92.13,2.63-.43,2.56-2.47-.15-4.57,0-9.15-.08-13.72-.03-1.54.5-2.03,2.02-2,4.41.08,8.82.12,13.23-.01,2.02-.06,2.8.48,2.72,2.63-.15,4.4.05,8.81-.09,13.21-.06,1.89.55,2.51,2.39,2.39,2.07-.13,4.16-.16,6.23-.02,1.7.11,2.09-.54,2.07-2.13-.08-6.82-.03-13.64-.03-20.47ZM605.85,85.37c0,6.91.02,13.81-.02,20.72,0,1.34.09,2.13,1.82,2.11,9.65-.08,19.31-.08,28.96-.02,1.81.01,2.29-.69,2.18-2.36-.12-1.91-.14-3.84.01-5.74.13-1.61-.5-2.01-1.98-1.99-4.66.06-9.33.02-13.99.02-6.53,0-6.44,0-6.46-6.51,0-1.99.75-2.34,2.5-2.3,4.66.1,9.33-.02,13.99.06,1.5.03,2.1-.39,2-1.96-.12-1.99-.12-4,0-5.99.1-1.63-.45-2.2-2.1-2.16-4,.1-7.99.03-11.99.03-4.4,0-4.28,0-4.4-4.33-.05-2.08.71-2.51,2.6-2.48,5.74.1,11.49-.02,17.24.07,1.85.03,2.8-.35,2.59-2.45-.18-1.81-.14-3.66-.02-5.49.11-1.69-.58-2.13-2.17-2.12-9.57.05-19.15.06-28.72,0-1.7-.01-2.1.57-2.08,2.16.07,6.91.03,13.81.03,20.72ZM357.47,85.25c0,6.91.04,13.82-.03,20.73-.01,1.53.29,2.19,2.03,2.18,9.58-.08,19.15-.08,28.73,0,1.78.01,2.36-.58,2.22-2.29-.12-1.49,0-3-.03-4.49-.05-3.46.75-3.24-3.37-3.25-4.17,0-8.33.05-12.5-.02-2.06-.04-4.69.89-6.01-.42-1.33-1.32-.13-3.99-.48-6.01-.39-2.27.78-2.39,2.52-2.36,4.58.07,9.16-.05,13.74.05,1.82.04,2.31-.64,2.19-2.33-.12-1.82-.13-3.67,0-5.49.13-1.72-.42-2.32-2.21-2.28-4.66.11-9.33-.04-13.99.07-1.76.04-2.46-.53-2.23-2.27.07-.57.1-1.18,0-1.74-.44-2.46.82-2.91,2.95-2.87,5.66.11,11.33,0,16.99.11,1.79.04,2.62-.35,2.44-2.33-.17-1.82-.15-3.67,0-5.49.14-1.79-.57-2.26-2.28-2.25-9.49.07-18.99.08-28.48,0-1.79-.02-2.25.58-2.23,2.29.08,6.83.03,13.65.03,20.48ZM558.68,77.54c0,3.91-.04,7.82,0,11.73.09,6.28,1.88,11.89,7.09,15.8,6.59,4.95,13.92,5.38,21.27,2.2,7.67-3.31,10.71-9.86,10.83-17.88.12-7.9.03-15.81.03-23.72,0-3.16,0-3.24-3.28-3.14-2.38.07-5.48-1.08-6.94.5-1.43,1.55-.44,4.61-.46,7-.06,6.91.15,13.82-.18,20.71-.28,5.95-5.29,9.34-11.04,7.94-4.06-.98-6.54-4.18-6.59-8.83-.08-8.4-.07-16.81,0-25.22.01-1.58-.38-2.27-2.08-2.17-2.16.13-4.33.14-6.49,0-1.84-.12-2.23.67-2.2,2.33.09,4.24.03,8.49.03,12.73ZM663.47,62.52c-1,0-2.02.12-2.99-.03-2.15-.33-3.15.59-3.68,2.63-.6,2.33-1.51,4.58-2.29,6.86-3.86,11.25-7.7,22.51-11.61,33.74-.61,1.76-.6,2.59,1.63,2.44,2.4-.17,4.83-.1,7.24-.02,1.29.04,1.98-.37,2.32-1.66.52-1.92,1.27-3.79,1.81-5.7.47-1.66,1.26-2.49,3.17-2.36,2.65.19,5.34.23,7.98,0,2.4-.22,3.5.69,4.01,2.94.38,1.69,1.16,3.29,1.61,4.97.36,1.34,1,1.91,2.45,1.83,2.33-.12,4.67-.15,6.99,0,2.21.14,2.45-.55,1.76-2.53-4.36-12.48-8.61-25-12.89-37.51q-1.91-5.6-7.51-5.6ZM58.06,40.17c2.25,0,4.49,0,6.74,0,4.34-.02,7.4-2.89,7.51-7.25.11-4.49.12-8.99,0-13.48-.12-4.28-3.11-7.17-7.34-7.23-4.58-.06-9.16-.06-13.73,0-4.02.05-6.92,2.63-7.07,6.58-.18,4.98-.19,9.99,0,14.97.15,3.89,3.01,6.36,6.91,6.4,2.33.03,4.66,0,6.99,0ZM497.87,85.51c0-6.91-.05-13.82.03-20.72.02-1.72-.47-2.4-2.25-2.29-2.24.13-4.49.08-6.73.01-1.29-.04-1.76.43-1.75,1.73.03,14.07.03,28.14,0,42.2,0,1.29.4,1.79,1.71,1.74,2.16-.08,4.33-.13,6.49.02,1.92.13,2.59-.43,2.55-2.47-.13-6.74-.05-13.48-.05-20.22ZM32.39,41.49c-1.91,0-3.83-.07-5.73.01-3.28.14-5.45,2.25-5.54,5.54-.1,3.65-.09,7.31,0,10.96.08,3.43,2.18,5.7,5.57,5.83,3.73.15,7.48.15,11.22,0,3.49-.14,5.54-2.29,5.62-5.74.08-3.65.08-7.31,0-10.96-.08-3.51-2.11-5.49-5.64-5.64-1.83-.07-3.66-.01-5.48-.01ZM87.39,56.36c0-1.33.03-2.66,0-3.99-.09-3.24-1.65-4.98-4.87-5.13-2.82-.13-5.66-.13-8.49,0-2.76.13-4.45,1.64-4.62,4.3-.2,3.15-.21,6.32-.06,9.47.12,2.41,1.77,3.93,4.2,4.15,1.65.15,3.32.12,4.99.13,8.37.01,8.86-.48,8.85-8.93ZM67.07,75.78c0-1.41.03-2.83,0-4.24-.09-3.07-1.49-4.51-4.63-4.59-2.91-.07-5.82-.07-8.73,0-2.91.08-4.46,1.56-4.57,4.49-.11,2.99-.12,5.99,0,8.97.11,2.69,1.77,4.34,4.44,4.44,2.99.12,5.99.12,8.98,0,2.91-.12,4.45-1.88,4.52-4.84.03-1.41,0-2.82,0-4.24ZM23.31,29.64c1.33,0,2.66,0,3.99,0,3.24-.02,4.99-1.56,5.12-4.75.11-2.74.12-5.49,0-8.22-.13-2.98-1.71-4.42-4.68-4.75-3.07-.34-6.13-.31-9.2.03-2.55.28-3.96,1.6-4.05,4.17-.11,3.15-.1,6.32,0,9.47.08,2.62,1.64,4,4.34,4.06,1.5.03,2.99,0,4.49,0ZM456.49,123.66c-2.86.06-4.58,3.16-3.04,5.7.87,1.43.74,2.19-.28,3.39-1.54,1.81-1.39,4.43.04,5.94,1.37,1.44,4.24,1.78,5.95.34,1.28-1.09,2.04-.96,2.98.21.31.38.76.73,1.27.27.53-.47.24-.99-.15-1.27-1.89-1.31-1.36-2.92-.74-4.63.25-.69.96-1.79-.2-2.12-1.19-.34-1.01.97-1.26,1.68-.22.63-.03,1.72-1.26,1.24-1.82-.71-2.4-3.1-1.11-4.54,1.19-1.33,1.35-2.81.68-4.38-.55-1.28-1.7-1.73-2.88-1.83ZM442.46,127.11c-6.03.5-6.91,1.76-5.3,7.2.12.42.08.78.03,1.2-.32,2.64.16,3.2,2.84,3.39.74.05,1.51-.02,2.18.39,1.21.74,1.31,2.47.02,3.01-1.63.69-3.4,1.06-4.72-.71-.33-.45-.5-1.3-1.19-.88-.65.4-.41,1.26-.05,1.81,1.27,1.89,3.19,1.85,5.14,1.56,1.82-.27,3.12-1.14,3.32-3.13.15-1.57-.67-2.55-2.06-3.02-.77-.26-1.63-.27-2.45-.37-.74-.09-1.65-.04-1.7-1.04-.05-1.05.81-.99,1.59-1.09,3.1-.38,4.08-1.65,3.81-4.87-.07-.86-.51-1.68.55-2.42.81-.57.33-1.16-.55-1.2-.57-.03-1.15.12-1.46.16ZM516.11,127.76c-4.62-.94-6.32.37-6.63,4.92-.1,1.41-.09,2.82.35,4.18.42,1.32,1.13,2.42,2.52,2.88,1.71.56,3.3-.76,5.01-.37.05.01.34-.55.34-.85.02-4.88.02-9.75,0-14.63,0-.51-.16-1.07-.77-1.1-.83-.03-.81.67-.82,1.24-.02,1.23,0,2.45,0,3.72ZM526.99,131.53s.01,0,.02,0c0,2.15.01,4.31,0,6.46,0,.92.16,1.54,1.27,1.74,3.73.68,6.84-1.36,7.53-5.13.3-1.63.31-3.29.15-4.95-.36-3.81-2.28-5.48-6.13-5.75-2.35-.17-3.11.63-2.86,2.9.17,1.56.03,3.15.03,4.72ZM584.51,135.76s.03,0,.04,0c0,2.33,0,4.65,0,6.98,0,.5.03,1.12.63,1.19.86.1.79-.65.83-1.21.04-.5.06-1,0-1.49-.15-1.51.13-2.11,1.89-1.48,1.82.65,3.24-.28,4.02-2.01.81-1.79.94-3.67.71-5.61-.51-4.31-1.52-5.04-5.8-4.2-.3.06-.66.08-.92-.04-1.36-.67-1.39.28-1.4,1.15-.03,2.24,0,4.49,0,6.73ZM339.31,130.96s0,0-.01,0c0,2.25-.03,4.5.02,6.75.01.68-.25,1.76.88,1.68.88-.06.65-1.02.66-1.64.03-1.91-.08-3.84.05-5.74.11-1.78,1.11-3.11,2.97-3.05,1.91.06,1.63,1.77,1.66,3.05.05,2.08.01,4.16.02,6.25,0,.5,0,1.14.62,1.19.85.07.79-.68.79-1.24,0-2.75,0-5.5-.08-8.24-.07-2.06-1.61-3.01-3.23-2.49-3.13,1.02-2.94-.73-2.78-2.73.02-.25,0-.5,0-.75,0-.52-.08-1.15-.63-1.21-.76-.09-.92.59-.92,1.2-.02,2.33,0,4.65,0,6.98ZM327.49,132.4c-.12-2.16-.44-4.04-2.63-4.81-1.66-.59-3.15-.16-4.32,1.1-1.84,1.97-1.75,7.84.1,9.87.97,1.06,2.22,1.49,3.61,1.3,1.12-.15,2.82-.41,2.48-1.74-.33-1.28-1.44.19-2.23.29-1.08.15-2.01-.04-2.67-.92-.54-.73-1.18-1.62-.81-2.5.5-1.18,1.74-.49,2.65-.63.57-.09,1.17-.06,1.74,0,1.6.16,2.41-.42,2.07-1.94ZM538.05,133.31c.12,1.85.31,3.25,1.02,4.51,1.18,2.09,4.23,2.75,6.06,1.35.4-.31.9-.63.61-1.19-.31-.61-.82-.31-1.27-.08-.37.19-.74.39-1.14.49-1.08.27-2-.08-2.64-.96-.53-.74-1.13-1.63-.71-2.53.49-1.05,1.62-.46,2.46-.55.82-.09,1.66-.02,2.49-.02.59,0,1.14-.04,1.43-.72.75-1.76-.66-5.27-2.44-5.98-2.22-.89-4.47.23-5.24,2.7-.34,1.1-.49,2.26-.64,2.99ZM557.16,133.37c-.02,4.34,1.96,6.82,5.06,6.48,1.13-.12,2.82-.43,2.49-1.74-.33-1.31-1.43.17-2.21.28-1.09.16-2.02-.02-2.67-.91-.58-.8-1.32-1.77-.78-2.72.51-.9,1.67-.35,2.54-.43.74-.07,1.5-.06,2.24,0,1.35.09,1.69-.56,1.67-1.81-.06-3.18-1.37-5.02-3.82-5.17-2.28-.14-3.76,1.43-4.27,4.53-.1.57-.2,1.14-.26,1.49ZM496.22,133.51c-.06-3.98-1.54-6.01-4.39-6.17-2.59-.15-4.2,1.86-4.54,5.67-.01.16-.04.33-.05.49-.09,3.71,1.73,6.35,4.42,6.42,2.61.07,4.15-1.92,4.5-5.77.02-.25.05-.49.06-.63ZM611.45,133.54c-.11,1.45.14,2.82.8,4.11.97,1.91,2.59,2.52,4.57,2.14.93-.18,2.36-.59,2.01-1.69-.39-1.23-1.31.2-2.03.22-.33,0-.66.17-.98.14-1.82-.18-2.66-1.5-2.76-3.04-.12-1.89,1.54-.88,2.41-1.06.71-.15,1.49-.09,2.23-.02,1.52.14,2.21-.44,1.91-2-.16-.81-.25-1.64-.44-2.44-.41-1.72-1.72-2.37-3.31-2.52-1.65-.15-2.88.55-3.6,2.08-.61,1.3-.93,2.66-.81,4.08ZM572.89,133.67c.03.5.03,1.17.11,1.83.3,2.62,2.01,4.38,4.24,4.39,2.25,0,3.85-1.67,4.26-4.37.23-1.5.14-2.98-.06-4.47-.3-2.36-1.62-3.56-4-3.63-3.04-.08-4.51,1.89-4.55,6.25ZM374.43,133.43c0-1.25-.16-2.47-.61-3.65-.61-1.57-1.76-2.32-3.42-2.36-1.78-.04-3.23.46-4,2.25-1.14,2.66-1.16,5.3.04,7.92.73,1.6,2.03,2.25,3.77,2.31,1.68.06,2.57-.93,3.31-2.17.79-1.33.91-2.81.9-4.32ZM405.17,133.52s.02,0,.03,0c0-1.25-.01-2.49,0-3.74.01-.79.36-2.03-.68-2.05-1.32-.02-.86,1.32-.87,2.15-.03,1.83,0,3.66-.02,5.48-.03,1.93-1.22,3.04-2.96,3-1.65-.04-1.6-1.68-1.62-2.9-.03-2.16.08-4.32.09-6.47,0-.56.01-1.26-.77-1.35-.66-.08-.84.46-.83.98.04,2.9-.03,5.82.21,8.71.14,1.68,1.34,2.62,3.13,2.56q4.29-.15,4.29-4.63c0-.58,0-1.16,0-1.75ZM622.5,133.3c0,1.5-.02,2.99,0,4.49.01.62-.21,1.61.66,1.63,1.13.02.75-1.08.77-1.74.05-1.83-.04-3.66.04-5.48.08-1.9,1.08-3.27,3.04-3.25,2.01.02,1.56,1.82,1.61,3.04.09,2.16.03,4.32.05,6.48,0,.5.11,1.07.75,1.09.68.02.75-.58.75-1.06-.03-2.9.19-5.81-.18-8.71-.23-1.76-1.38-2.4-2.94-2.42-4.56-.05-4.56-.02-4.56,4.69,0,.42,0,.83,0,1.25ZM426.03,133.34c0,1.49-.02,2.99,0,4.48.01.62-.21,1.57.68,1.61.95.04.73-.92.74-1.53.03-1.99-.07-3.99.05-5.97.1-1.67,1.1-2.9,2.79-2.97,1.89-.08,1.85,1.55,1.89,2.87.06,2.15.03,4.31.07,6.47,0,.49.12,1.04.74,1.13.58.09.67-.42.66-.81,0-3.06.32-6.15-.23-9.18-.29-1.6-1.5-2.3-3.15-2.08q-4.26.56-4.26,4.99c0,.33,0,.66,0,1ZM471.44,131.18c-.02,2.44.14,4.43,1.19,6.22,1.44,2.47,4.73,3.32,6.91,1.8.47-.33,1.13-.65.73-1.35-.31-.55-.83-.22-1.32-.05-3.16,1.11-4.78.21-5.61-3.07-.45-1.8-.53-3.59-.08-5.42.94-3.82,1.8-4.38,5.74-3.54.5.11,1.05.32,1.23-.34.17-.6-.4-.84-.81-1.09-2.19-1.35-5.08-.65-6.6,1.56-1.19,1.73-1.44,3.68-1.39,5.28ZM356.89,131.5c.12-1.65.13-3.81,1.7-5.4,1.39-1.4,3.03-1,4.63-.24.32.15.71.08.86-.25.27-.6-.21-.9-.61-1.19-1.73-1.26-5.69-.43-6.79,1.61-2.03,3.78-1.93,7.71-.02,11.47,1.21,2.38,4.37,3.15,6.49,1.86.52-.31,1.45-.6,1.08-1.42-.43-.95-1.12-.21-1.66.06-2.04,1-3.57.33-4.65-1.49-.82-1.39-1.02-2.97-1.02-5ZM314.16,132.47s.03,0,.04,0c0,1.67-.04,3.33.02,5,.03.75-.4,1.98.77,2.04,1.25.06.85-1.18.86-1.92.05-3,.13-6,.03-8.99-.06-1.96-.25-3.77,2.65-3.28.48.08,1.09-.07,1.09-.71,0-.66-.64-.69-1.12-.7-2.25-.06-4.49-.11-6.74-.12-.48,0-1.08.14-1.12.75-.04.63.58.89,1.02.81,2.86-.52,2.62,1.31,2.52,3.15-.07,1.32-.01,2.65-.01,3.98ZM377.47,133.49c0,1.49-.02,2.99.01,4.48.02.61-.25,1.6.69,1.57.83-.02.69-.98.7-1.63.02-2.07-.1-4.16.07-6.22.14-1.68,1.24-2.79,2.97-2.77,1.84.03,1.59,1.59,1.62,2.79.04,2.16.01,4.32.03,6.47,0,.58-.01,1.29.79,1.27.64-.01.66-.65.65-1.14-.02-2.82,0-5.64-.11-8.46-.07-1.89-1.39-2.56-3.07-2.5-4.34.18-4.34.21-4.34,4.87,0,.42,0,.83,0,1.25ZM551.84,136.64c-.9-2.98-1.64-5.48-2.43-7.96-.2-.63-.55-1.33-1.42-.98-.57.23-.45.79-.29,1.29,1.02,3.15,2.02,6.31,3.05,9.45.17.53.33,1.12,1.09,1.17.89.06,1.14-.56,1.34-1.2.98-3.17,1.94-6.34,2.91-9.52.16-.51.2-1.03-.38-1.25-.57-.22-.97.15-1.15.65-.22.62-.34,1.28-.54,1.91-.66,1.98-.88,4.12-2.18,6.43ZM390.93,139.9c2.1,0,3.5-.71,3.95-2.63.43-1.84-.18-3.27-1.94-4.12-.45-.22-.92-.39-1.37-.59-1.16-.49-2.6-.97-1.97-2.59.57-1.48,1.99-1.19,3.24-.87.39.1.78.38,1.16.35.63-.04.94-.52.42-1-1.19-1.09-2.67-1.34-4.19-.9-1.26.36-2.16,1.06-2.27,2.59-.19,2.69,1.82,3.25,3.66,4.01,1.38.57,2.36,1.5,1.7,3.06-.65,1.55-2.01,1.43-3.41,1.03-.68-.19-1.61-1.42-2.04-.21-.34.96,1.02,1.29,1.82,1.65.44.19.97.18,1.23.22ZM417.08,139.89c.71-.09,1.56-.03,1.83-.94.15-.52-.27-.82-.73-.68-2.48.72-2.37-.98-2.39-2.53-.02-1.67,0-3.33,0-5,0-.95-.04-1.91,1.36-1.83.5.03,1.12-.03,1.1-.69-.01-.64-.62-.66-1.13-.7-.32-.03-.7-.02-.95-.19-.93-.61.33-2.59-1.22-2.53-1.37.05.04,2.31-1.47,2.73-.16.04-.33.1-.45.2-.34.31-.56.84-.06.99,1.92.58,1.19,2.12,1.27,3.32.12,1.82.03,3.66.15,5.49.11,1.57,1.06,2.38,2.68,2.36ZM636.49,139.89c.73-.11,1.89,0,1.84-1.08-.05-1.09-1.03-.34-1.59-.34-1.11-.02-1.44-.74-1.46-1.63-.06-2.24-.05-4.48-.09-6.72-.02-.87.46-1.15,1.23-1.19.49-.03,1.12-.07,1.09-.71-.03-.6-.64-.64-1.15-.7-.32-.04-.86-.14-.89-.29-.84-4.69-1.45-2.72-2.11.05-.05.2-.59.24-.84.44-.36.27-.61.83-.13.99,2.02.67,1.14,2.31,1.25,3.56.14,1.65-.01,3.32.11,4.98.12,1.58.9,2.66,2.75,2.66ZM329.59,133.55c-.09,1.53.18,2.99.96,4.32,1.11,1.88,3.68,2.62,5.42,1.56.48-.29,1.15-.62.78-1.32-.32-.61-.84-.17-1.3-.03-2.34.68-3.61-.1-4.06-2.49-.23-1.23-.24-2.48-.02-3.72.42-2.42,1.6-3.25,4-2.74.56.12,1.19.57,1.46-.21.25-.72-.51-.96-1-1.2-1.89-.94-4.4-.12-5.35,1.75-.65,1.28-.98,2.64-.89,4.09ZM408.65,130.71h0c0,2.16-.05,4.32.02,6.47.04,1.16.22,2.39,1.72,2.66.48.09,1.04.1,1.3-.46.24-.52-.16-.74-.56-.9-1.23-.52-.95-1.63-.96-2.58-.03-3.9,0-7.79-.02-11.69,0-.54.17-1.37-.58-1.43-.91-.07-.91.79-.91,1.45-.02,2.16,0,4.31,0,6.47ZM482.61,130.65c0,2.24-.01,4.48,0,6.72,0,1.05.29,2,1.4,2.4.56.2,1.24.26,1.59-.3.38-.62-.24-.8-.67-1.03-1.03-.56-.75-1.57-.75-2.44-.03-3.56.03-7.12-.04-10.68-.02-.86.58-2.45-.79-2.4-1.24.05-.67,1.62-.71,2.53-.08,1.74-.02,3.48-.02,5.22ZM569.7,122.71c-1.27.25-1.34.77-1.34,1.26,0,4.55,0,9.1.04,13.65,0,.4.12.83.28,1.2.29.68.89.98,1.6.94.3-.02.76-.16.84-.36.33-.89-.62-.74-.98-1.09-.54-.52-.46-1.21-.46-1.86,0-2.32.03-4.64.03-6.95,0-2.23,0-4.46,0-6.78ZM422.28,133.43s.04,0,.06,0c0-1.57.02-3.14-.01-4.71-.01-.49-.18-1.05-.81-1.04-.62,0-.82.58-.82,1.05,0,3.22.05,6.44.11,9.66,0,.48.09,1.08.75,1.07.67,0,.71-.61.71-1.08.03-1.65.01-3.31.01-4.96Z"/>
        <path class="cls-3" d="M55.65,158.87c-5.84-.27-12.67.53-19.43-1.06-17.39-4.09-30.33-19.6-31.2-36.79-.97-19.41,11.55-35.62,28.79-40.86,3.34-1.02,6.82-1.45,10.32-1.63,1.26-.06,1.71.42,1.82,1.71.49,5.5,3.08,7.82,8.56,7.85,2.67.02,5.33.04,8-.01,4.67-.09,7.78-3.17,7.92-7.86.06-2,.01-4,.02-5.99.01-4.02,1.7-5.71,5.68-5.71,2.08,0,4.17.04,6.25-.01,4.98-.11,8.1-3.2,8.24-8.13.15-5.02.14-5.06,4.94-6.71,12.09-4.13,24.25-4.17,36.18.32,6.06,2.28,9.77,7.43,12.21,13.25,3.81,9.08,2.03,17.99-1.67,26.63-5.33,12.49-14.04,22.54-23.73,31.8-13.02,12.45-27.86,22.39-43.47,31.28-2.52,1.44-4.93,2.05-7.74,1.95-3.58-.13-7.16-.03-11.7-.03ZM100.88,96.34c0-1.75.04-3.5,0-5.24-.11-3.94-2.04-6.12-5.92-6.32-3.57-.18-7.16-.18-10.74,0-3.81.18-5.8,2.25-5.93,6.04-.12,3.57-.13,7.15.03,10.72.16,3.68,2.44,5.79,6.12,5.86,3.41.07,6.83.07,10.24,0,3.87-.08,6.19-2.5,6.2-6.33,0-1.57,0-3.15,0-4.72Z"/>
        <path class="cls-3" d="M111.37,158.4c4.29-2.67,8.65-5.25,12.87-8.04,13.27-8.75,25.43-18.8,35.4-31.27,7.65-9.57,13.85-19.93,16.14-32.21.35-1.87.75-3.8.67-5.68-.09-2.12.96-2.52,2.66-2.61,7.56-.37,14.77.98,21.38,4.72,12.62,7.15,19.64,17.94,21.05,32.47,2.01,20.73-14.02,39.98-34.66,42.6-7.96,1.01-15.96.39-23.94.44-16.65.11-33.3.03-49.95.03-.48,0-.96,0-1.45,0-.05-.16-.1-.31-.16-.47Z"/>
        <path class="cls-6" d="M51.92,174.49c16.77-7.12,32.62-15.89,47.55-26.32,14.27-9.97,27.37-21.23,37.93-35.18,6.74-8.9,12.05-18.52,13.82-29.77,2.3-14.65-5.08-29.03-18.31-35.75-3.64-1.85-7.36-3.49-11.14-5.11,4.83.11,9.58.69,14.27,1.79,8.61,2.01,16.77,5.12,23.53,10.95,10.26,8.86,13.34,20.11,10.14,33.14-3.26,13.26-10.91,23.98-20.03,33.74-13.74,14.72-30.22,25.74-47.98,35.01-15.8,8.25-32.42,14.26-49.77,18.28,0-.26-.01-.52-.02-.78Z"/>
        <path class="cls-6" d="M552.17,85.51c-.12,4.2-.64,8.35-2.94,11.96-1.17,1.84-.72,2.88.8,4.13,2.55,2.09,2.48,2.17.14,4.51-.29.29-.56.61-.86.91-1.4,1.42-2.61,3.65-4.24,4.01-1.65.37-2.92-2.09-4.3-3.36-1.05-.97-1.9-.52-2.95-.17-8.35,2.76-16.47,2.46-23.85-2.67-8.41-5.84-11.67-17.46-8.19-27.96,3.18-9.59,12.14-15.57,22.99-15.35,14.11.29,23.75,10.17,23.42,24ZM541.54,85.69c-.14-5.26-1.84-9.6-6.44-12.35-4.91-2.94-11.33-2.27-15.6,1.51-4.23,3.75-5.57,10.99-3.08,16.62,2.17,4.89,7.33,8.05,12.42,7.56.68-.07,2.24-.2,1.02-1.19-2.22-1.79-.98-2.81.3-4.12,1.28-1.31,2.54-2.64,3.7-4.06.97-1.2,1.75-1.52,2.97-.24.87.91,1.79,2.61,3.02,2.16,1.31-.49,1.17-2.42,1.48-3.78.17-.72.15-1.49.21-2.12Z"/>
        <path class="cls-6" d="M425.99,88.72c0-6.12,0-12.24,0-18.36,0-.91-.01-1.83,0-2.74q.09-5.11,5.1-5.12c5.48,0,5.58,0,5.6,5.41.05,12.73-.02,25.45.05,38.18,0,1.76-.68,2.11-2.21,2.05-2.24-.09-4.49-.13-6.73.01-1.79.11-2.84-.48-3.8-2.05-4.5-7.39-9.15-14.68-13.75-22.01-.48-.76-1-1.49-1.54-2.28-1.02.79-.6,1.77-.6,2.59-.04,7.15-.07,14.3,0,21.45.02,1.68-.38,2.42-2.21,2.3-2.23-.14-4.49-.09-6.73-.01-1.27.04-1.74-.34-1.74-1.68.04-14.06.04-28.12,0-42.18,0-1.49.6-1.92,1.94-1.77.41.04.83.03,1.25.03,8.43-.05,8.37-.02,12.69,7.13,3.7,6.12,7.56,12.14,11.36,18.21.21.34.49.64.74.96.19-.04.38-.08.57-.12Z"/>
        <path class="cls-6" d="M267.71,85.24c0-6.82.02-13.64-.02-20.47,0-1.42.09-2.34,1.95-2.3,6.4.13,12.81-.05,19.21.18,7.27.26,12.13,4,13.6,10.28,1.5,6.4-.32,13.93-7.09,16.97-1.56.7-1.03,1.56-.49,2.58,2.37,4.48,4.69,9,7.12,13.45.86,1.58.99,2.35-1.22,2.24-2.9-.14-6.17.71-8.63-.36-2.54-1.1-3.01-4.75-4.45-7.24-1.42-2.44-2.76-4.93-3.95-7.49-.97-2.09-2.72-1.62-4.28-1.47-1.69.16-1.02,1.65-1.04,2.59-.07,3.99-.09,7.99,0,11.98.03,1.55-.5,2.05-2.01,1.99-2.24-.1-4.5-.11-6.74,0-1.54.08-2-.46-1.98-1.98.07-6.99.03-13.98.03-20.96ZM283.69,81.55c1.24,0,2.5.08,3.73-.02,3.19-.25,4.8-1.86,4.73-4.62-.07-2.63-1.69-4.18-4.75-4.35-1.82-.1-3.65,0-5.47.02q-3.53.03-3.54,3.6,0,5.34,5.3,5.36Z"/>
        <path class="cls-6" d="M445.27,85.34c0-6.91.02-13.81-.02-20.72,0-1.34.13-2.17,1.85-2.14,6.49.12,12.99-.04,19.47.19,7.14.25,12,4.18,13.49,10.45,1.68,7.12-.84,13.22-7.12,16.74-1.43.8-1.13,1.5-.57,2.57,2.39,4.48,4.66,9.02,7.14,13.44,1.13,2.01.53,2.37-1.46,2.27-2.9-.15-6.22.7-8.6-.45-2.3-1.12-2.86-4.67-4.26-7.12-1.36-2.38-2.83-4.73-3.87-7.25-1.03-2.47-2.91-1.75-4.62-1.64-1.03.07-.77,1.13-.77,1.83-.02,4.16-.07,8.32.02,12.48.03,1.59-.41,2.26-2.1,2.17-2.16-.12-4.33-.13-6.49,0-1.65.1-2.14-.45-2.12-2.09.08-6.9.03-13.81.03-20.72ZM461.13,81.5c1.41,0,2.83.12,4.23-.02,2.86-.29,4.4-1.93,4.37-4.47-.02-2.53-1.62-4.23-4.44-4.41-2.57-.16-5.15-.04-7.72-.1-1.14-.03-1.71.39-1.65,1.59.04.75,0,1.5,0,2.24q0,5.23,5.21,5.17Z"/>
        <path class="cls-6" d="M348.97,85.56c0,6.82-.04,13.64.03,20.47.02,1.59-.38,2.24-2.07,2.13-2.07-.14-4.16-.11-6.23.02-1.84.12-2.45-.5-2.39-2.39.14-4.4-.06-8.81.09-13.21.08-2.15-.7-2.69-2.72-2.63-4.41.13-8.82.09-13.23.01-1.52-.03-2.04.46-2.02,2,.08,4.57-.08,9.15.08,13.72.07,2.04-.64,2.6-2.56,2.47-1.99-.13-4-.06-5.99.07-1.77.12-2.24-.59-2.23-2.3.06-13.64.07-27.28,0-40.92-.01-2,.59-2.65,2.56-2.49,1.9.16,3.84.14,5.73-.04,2.08-.2,2.53.69,2.48,2.58-.12,4.32.01,8.65-.06,12.97-.03,1.52.47,2.04,2,2.01,4.66-.08,9.32-.08,13.98,0,1.59.03,1.98-.63,1.96-2.09-.06-4.49.02-8.98-.05-13.46-.02-1.52.48-2.07,2.02-1.99,2.07.11,4.16.12,6.23-.02,1.83-.13,2.46.45,2.43,2.36-.11,6.9-.04,13.81-.04,20.71Z"/>
        <path class="cls-6" d="M605.85,85.37c0-6.91.04-13.81-.03-20.72-.02-1.59.38-2.18,2.08-2.16,9.57.07,19.15.06,28.72,0,1.59,0,2.29.43,2.17,2.12-.12,1.82-.16,3.67.02,5.49.21,2.11-.74,2.48-2.59,2.45-5.74-.09-11.49.03-17.24-.07-1.89-.03-2.66.4-2.6,2.48.11,4.33,0,4.33,4.4,4.33,4,0,8,.07,11.99-.03,1.66-.04,2.21.53,2.1,2.16-.12,1.99-.12,4,0,5.99.1,1.57-.51,1.99-2,1.96-4.66-.08-9.33.04-13.99-.06-1.75-.04-2.5.31-2.5,2.3.01,6.51-.07,6.51,6.46,6.51,4.66,0,9.33.04,13.99-.02,1.48-.02,2.11.38,1.98,1.99-.15,1.9-.13,3.83-.01,5.74.11,1.67-.37,2.37-2.18,2.36-9.65-.07-19.31-.07-28.96.02-1.73.01-1.83-.77-1.82-2.11.04-6.91.02-13.81.02-20.72Z"/>
        <path class="cls-6" d="M357.47,85.25c0-6.83.05-13.66-.03-20.48-.02-1.7.43-2.3,2.23-2.29,9.49.08,18.99.07,28.48,0,1.71-.01,2.42.45,2.28,2.25-.14,1.82-.16,3.67,0,5.49.18,1.98-.65,2.36-2.44,2.33-5.66-.11-11.33,0-16.99-.11-2.13-.04-3.39.42-2.95,2.87.1.56.08,1.17,0,1.74-.22,1.74.48,2.31,2.23,2.27,4.66-.1,9.33.04,13.99-.07,1.78-.04,2.33.56,2.21,2.28-.13,1.82-.13,3.67,0,5.49.11,1.69-.38,2.37-2.19,2.33-4.58-.11-9.16.02-13.74-.05-1.74-.03-2.91.09-2.52,2.36.35,2.02-.85,4.69.48,6.01,1.32,1.32,3.96.39,6.01.42,4.16.07,8.33.01,12.5.02,4.12,0,3.32-.21,3.37,3.25.02,1.5-.09,3.01.03,4.49.14,1.71-.43,2.31-2.22,2.29-9.58-.08-19.15-.08-28.73,0-1.74.01-2.05-.65-2.03-2.18.06-6.91.03-13.82.03-20.73Z"/>
        <path class="cls-6" d="M558.68,77.54c0-4.24.06-8.49-.03-12.73-.04-1.66.35-2.45,2.2-2.33,2.16.14,4.33.13,6.49,0,1.7-.1,2.09.58,2.08,2.17-.06,8.4-.07,16.81,0,25.22.04,4.66,2.53,7.85,6.59,8.83,5.75,1.39,10.76-1.99,11.04-7.94.32-6.89.11-13.81.18-20.71.02-2.39-.97-5.45.46-7,1.46-1.59,4.56-.43,6.94-.5,3.27-.1,3.28-.02,3.28,3.14,0,7.91.09,15.81-.03,23.72-.12,8.02-3.15,14.56-10.83,17.88-7.36,3.18-14.68,2.75-21.27-2.2-5.21-3.91-7-9.52-7.09-15.8-.05-3.91,0-7.82-.01-11.73Z"/>
        <path class="cls-6" d="M663.47,62.52q5.61,0,7.51,5.6c4.28,12.51,8.53,25.03,12.89,37.51.69,1.98.45,2.67-1.76,2.53-2.32-.15-4.66-.12-6.99,0-1.45.07-2.09-.5-2.45-1.83-.45-1.68-1.23-3.28-1.61-4.97-.51-2.25-1.62-3.15-4.01-2.94-2.64.24-5.33.19-7.98,0-1.91-.13-2.7.7-3.17,2.36-.54,1.92-1.29,3.78-1.81,5.7-.35,1.29-1.04,1.7-2.32,1.66-2.41-.08-4.84-.15-7.24.02-2.23.15-2.24-.67-1.63-2.44,3.92-11.23,7.75-22.49,11.61-33.74.78-2.28,1.69-4.53,2.29-6.86.53-2.04,1.53-2.96,3.68-2.63.98.15,1.99.03,2.99.03ZM663.73,79c-.19-.03-.38-.07-.56-.1-.57,1.69-1.16,3.36-1.71,5.06-1.59,4.94-1.54,4.96,3.66,4.5,1.3-.11,1.55-.55,1.15-1.71-.88-2.57-1.7-5.17-2.55-7.75Z"/>
        <path class="cls-6" d="M58.06,40.17c-2.33,0-4.66.02-6.99,0-3.89-.04-6.75-2.51-6.91-6.4-.19-4.98-.19-9.99,0-14.97.14-3.95,3.04-6.53,7.07-6.58,4.58-.06,9.16-.06,13.73,0,4.24.06,7.22,2.94,7.34,7.23.13,4.49.12,8.99,0,13.48-.1,4.36-3.17,7.23-7.51,7.25-2.25.01-4.49,0-6.74,0Z"/>
        <path class="cls-6" d="M497.87,85.51c0,6.74-.08,13.48.05,20.22.04,2.04-.63,2.6-2.55,2.47-2.15-.15-4.33-.09-6.49-.02-1.31.05-1.72-.46-1.71-1.74.03-14.07.03-28.14,0-42.2,0-1.3.46-1.77,1.75-1.73,2.24.07,4.49.12,6.73-.01,1.78-.1,2.27.57,2.25,2.29-.08,6.91-.03,13.82-.03,20.72Z"/>
        <path class="cls-3" d="M32.39,41.49c1.83,0,3.66-.06,5.48.01,3.53.14,5.56,2.13,5.64,5.64.09,3.65.09,7.31,0,10.96-.08,3.45-2.13,5.6-5.62,5.74-3.73.15-7.48.15-11.22,0-3.38-.14-5.49-2.41-5.57-5.83-.08-3.65-.1-7.31,0-10.96.09-3.28,2.25-5.4,5.54-5.54,1.91-.08,3.82-.01,5.73-.02Z"/>
        <path class="cls-4" d="M87.39,56.36c0,8.45-.48,8.94-8.85,8.93-1.66,0-3.33.03-4.99-.13-2.43-.23-4.08-1.74-4.2-4.15-.16-3.15-.15-6.32.06-9.47.17-2.66,1.86-4.17,4.62-4.3,2.82-.13,5.66-.14,8.49,0,3.22.15,4.78,1.9,4.87,5.13.04,1.33,0,2.66,0,3.99Z"/>
        <path class="cls-5" d="M67.07,75.78c0,1.41.03,2.83,0,4.24-.06,2.97-1.61,4.72-4.52,4.84-2.99.12-5.99.12-8.98,0-2.67-.1-4.32-1.76-4.44-4.44-.13-2.99-.12-5.98,0-8.97.11-2.93,1.66-4.41,4.57-4.49,2.91-.08,5.82-.08,8.73,0,3.14.08,4.54,1.51,4.63,4.59.04,1.41,0,2.82,0,4.24Z"/>
        <path class="cls-5" d="M23.31,29.64c-1.5,0-2.99.02-4.49,0-2.7-.05-4.26-1.44-4.34-4.06-.09-3.15-.1-6.32,0-9.47.09-2.57,1.49-3.88,4.05-4.17,3.07-.34,6.12-.37,9.2-.03,2.97.33,4.55,1.77,4.68,4.75.12,2.74.12,5.49,0,8.22-.13,3.19-1.87,4.73-5.12,4.75-1.33,0-2.66,0-3.99,0Z"/>
        <path class="cls-2" d="M456.49,123.66c1.18.1,2.34.55,2.88,1.83.67,1.56.51,3.05-.68,4.38-1.29,1.44-.7,3.83,1.11,4.54,1.23.48,1.05-.61,1.26-1.24.25-.71.07-2.02,1.26-1.68,1.16.33.45,1.42.2,2.12-.62,1.71-1.15,3.32.74,4.63.39.27.68.8.15,1.27-.51.45-.96.11-1.27-.27-.94-1.16-1.7-1.29-2.98-.21-1.7,1.44-4.58,1.1-5.95-.34-1.43-1.51-1.58-4.13-.04-5.94,1.02-1.2,1.15-1.96.28-3.39-1.55-2.53.17-5.63,3.04-5.7ZM456.2,138.5c1.62,0,3.16-1.02,3.15-1.91-.01-.63-3.25-4.23-3.76-4.07-1.37.44-1.86,1.65-1.89,2.9-.04,1.79.85,2.97,2.5,3.07ZM456.27,125.05c-1.31.26-1.91,1.12-1.78,2.33.12,1.12.55,2.64,1.81,2.46,1.13-.17,1.93-1.49,1.85-2.9-.07-1.17-.71-1.81-1.87-1.88Z"/>
        <path class="cls-2" d="M442.46,127.11c.31-.04.89-.19,1.46-.16.88.04,1.36.63.55,1.2-1.06.74-.62,1.56-.55,2.42.27,3.22-.71,4.49-3.81,4.87-.77.09-1.64.04-1.59,1.09.05,1.01.95.96,1.7,1.04.82.09,1.68.11,2.45.37,1.39.47,2.21,1.45,2.06,3.02-.2,1.99-1.49,2.87-3.32,3.13-1.95.28-3.87.33-5.14-1.56-.37-.55-.61-1.41.05-1.81.69-.42.86.43,1.19.88,1.31,1.77,3.09,1.4,4.72.71,1.29-.54,1.19-2.27-.02-3.01-.68-.41-1.44-.34-2.18-.39-2.68-.19-3.16-.75-2.84-3.39.05-.42.09-.78-.03-1.2-1.61-5.45-.73-6.7,5.3-7.2ZM442.52,131.45c-.08-1.55-.66-2.61-2.38-2.58-1.71.04-2.31,1.09-2.26,2.63.04,1.53.69,2.59,2.37,2.59,1.75,0,2.18-1.22,2.28-2.65Z"/>
        <path class="cls-2" d="M516.11,127.76c0-1.27-.01-2.5,0-3.72.01-.57,0-1.27.82-1.24.61.02.77.59.77,1.1.02,4.88.02,9.75,0,14.63,0,.3-.29.86-.34.85-1.72-.39-3.31.94-5.01.37-1.39-.46-2.1-1.56-2.52-2.88-.44-1.36-.45-2.77-.35-4.18.31-4.55,2.01-5.86,6.63-4.92ZM516.11,133.4c-.22-1.63.82-4.13-2.28-4.47-1.8-.2-2.98,1.71-2.87,4.73.08,1.95,0,4.25,2.6,4.76,1.61.32,2.54-1.5,2.55-4.57,0-.08,0-.17,0-.45Z"/>
        <path class="cls-2" d="M526.99,131.53c0-1.57.14-3.16-.03-4.72-.25-2.27.51-3.07,2.86-2.9,3.85.27,5.77,1.94,6.13,5.75.16,1.66.14,3.32-.15,4.95-.69,3.77-3.8,5.81-7.53,5.13-1.11-.2-1.28-.82-1.27-1.74.02-2.15,0-4.31,0-6.46,0,0-.01,0-.02,0ZM528.43,131.53c0,1.58.08,3.17-.02,4.74-.12,1.79.71,2.14,2.27,1.87,2.38-.41,3.68-2.35,3.82-5.93.16-3.83-1.04-6.27-3.37-6.76-1.64-.34-3.04-.33-2.73,2.08.17,1.31.03,2.66.03,3.99Z"/>
        <path class="cls-2" d="M584.51,135.76c0-2.24-.02-4.49,0-6.73.01-.87.03-1.82,1.4-1.15.25.12.62.1.92.04,4.28-.84,5.28-.11,5.8,4.2.23,1.94.1,3.82-.71,5.61-.78,1.73-2.2,2.67-4.02,2.01-1.75-.63-2.04-.03-1.89,1.48.05.49.03,1,0,1.49-.04.56.04,1.31-.83,1.21-.6-.07-.63-.69-.63-1.19,0-2.33,0-4.65,0-6.98-.01,0-.03,0-.04,0ZM586.04,133.56s-.01,0-.02,0c0,.58.02,1.16,0,1.74-.07,1.75.67,3.03,2.46,3.11,1.78.09,2.28-1.38,2.52-2.85.24-1.48.23-2.99-.04-4.46-.22-1.21-.75-2.27-2.23-2.21-1.52.06-2.48.88-2.67,2.42-.09.74-.02,1.49-.02,2.24Z"/>
        <path class="cls-2" d="M339.31,130.96c0-2.33-.01-4.65,0-6.98,0-.61.16-1.29.92-1.2.55.07.62.69.63,1.21,0,.25.02.5,0,.75-.16,2-.35,3.75,2.78,2.73,1.62-.53,3.16.43,3.23,2.49.09,2.75.08,5.49.08,8.24,0,.56.06,1.31-.79,1.24-.62-.05-.62-.69-.62-1.19-.01-2.08.02-4.16-.02-6.25-.03-1.29.25-2.99-1.66-3.05-1.86-.06-2.86,1.28-2.97,3.05-.12,1.91-.01,3.83-.05,5.74-.01.62.22,1.58-.66,1.64-1.14.07-.87-1.01-.88-1.68-.04-2.25-.02-4.5-.02-6.75,0,0,0,0,.01,0Z"/>
        <path class="cls-2" d="M327.49,132.4c.34,1.52-.47,2.09-2.07,1.94-.58-.06-1.17-.08-1.74,0-.91.14-2.15-.55-2.65.63-.38.88.27,1.77.81,2.5.65.88,1.58,1.07,2.67.92.79-.11,1.9-1.58,2.23-.29.34,1.33-1.36,1.59-2.48,1.74-1.39.19-2.64-.24-3.61-1.3-1.85-2.03-1.94-7.9-.1-9.87,1.17-1.26,2.66-1.68,4.32-1.1,2.19.77,2.51,2.65,2.63,4.81ZM323.5,133.1c.84-.48,2.62.77,2.5-1.34-.08-1.47-.64-2.85-2.47-2.83-1.78.02-2.43,1.38-2.55,2.83-.18,2.16,1.65.85,2.52,1.34Z"/>
        <path class="cls-2" d="M538.05,133.31c.15-.73.29-1.89.64-2.99.77-2.47,3.02-3.59,5.24-2.7,1.78.71,3.2,4.22,2.44,5.98-.29.68-.84.72-1.43.72-.83,0-1.67-.07-2.49.02-.84.09-1.97-.5-2.46.55-.42.9.17,1.79.71,2.53.64.88,1.56,1.23,2.64.96.4-.1.77-.3,1.14-.49.45-.23.96-.54,1.27.08.29.56-.21.89-.61,1.19-1.83,1.41-4.89.74-6.06-1.35-.71-1.26-.9-2.66-1.02-4.51ZM542.32,133.09c.81-.54,2.58.84,2.61-1.18.02-1.43-.51-2.91-2.33-2.98-1.9-.07-2.63,1.3-2.71,2.91-.1,1.93,1.54.85,2.43,1.26Z"/>
        <path class="cls-2" d="M557.16,133.37c.06-.35.16-.92.26-1.49.52-3.1,2-4.67,4.27-4.53,2.45.15,3.76,2,3.82,5.17.02,1.25-.32,1.9-1.67,1.81-.74-.05-1.5-.06-2.24,0-.87.08-2.03-.46-2.54.43-.54.95.19,1.92.78,2.72.65.89,1.57,1.07,2.67.91.78-.11,1.88-1.6,2.21-.28.32,1.31-1.37,1.62-2.49,1.74-3.11.33-5.08-2.15-5.06-6.48ZM561.58,133.16c.78-.59,2.59.73,2.41-1.49-.13-1.56-.74-2.81-2.55-2.74-1.78.07-2.44,1.47-2.49,2.91-.08,2.08,1.73.72,2.63,1.32Z"/>
        <path class="cls-2" d="M496.22,133.51c-.01.14-.04.39-.06.63-.35,3.86-1.9,5.84-4.5,5.77-2.69-.07-4.5-2.71-4.42-6.42,0-.16.03-.33.05-.49.34-3.81,1.95-5.81,4.54-5.67,2.85.16,4.33,2.2,4.39,6.17ZM494.58,132.94c-.02-.17,0-.85-.17-1.48-.33-1.23-.79-2.51-2.33-2.49-1.65.03-2.84.87-3.05,2.64-.2,1.64-.28,3.28.29,4.9.46,1.29,1.43,1.84,2.65,1.86,1.11.02,1.74-.79,2.14-1.78.42-1.02.5-2.08.48-3.66Z"/>
        <path class="cls-2" d="M611.45,133.54c-.11-1.42.2-2.78.81-4.08.73-1.54,1.95-2.24,3.6-2.08,1.59.15,2.89.8,3.31,2.52.19.8.29,1.63.44,2.44.3,1.56-.39,2.14-1.91,2-.74-.07-1.52-.13-2.23.02-.87.19-2.53-.83-2.41,1.06.1,1.54.93,2.86,2.76,3.04.32.03.65-.13.98-.14.72-.01,1.64-1.45,2.03-.22.35,1.1-1.08,1.51-2.01,1.69-1.98.37-3.6-.23-4.57-2.14-.66-1.29-.9-2.66-.8-4.11ZM615.64,133.17c.7-.68,2.54.79,2.44-1.44-.07-1.56-.6-2.85-2.46-2.81-1.95.04-2.58,1.56-2.59,3.07-.01,1.85,1.67.62,2.6,1.18Z"/>
        <path class="cls-2" d="M572.89,133.67c.04-4.36,1.51-6.33,4.55-6.25,2.38.06,3.7,1.27,4,3.63.19,1.49.28,2.97.06,4.47-.4,2.7-2.01,4.38-4.26,4.37-2.23,0-3.94-1.77-4.24-4.39-.08-.66-.08-1.33-.11-1.83ZM580.08,133.34c-.01-.26-.02-.75-.07-1.24-.19-1.68-.72-3.14-2.74-3.18-1.93-.04-2.43,1.42-2.75,2.94-.12.56-.13,1.15-.13,1.72-.02,3.07,1.16,4.98,3.01,4.89,1.73-.08,2.69-1.81,2.7-5.13Z"/>
        <path class="cls-2" d="M374.44,133.43c0,1.5-.11,2.99-.9,4.32-.74,1.24-1.63,2.23-3.31,2.17-1.74-.06-3.04-.71-3.77-2.31-1.2-2.63-1.18-5.26-.04-7.92.77-1.8,2.22-2.3,4-2.25,1.65.04,2.81.79,3.42,2.36.46,1.18.61,2.4.61,3.65ZM372.99,133.62c.03-2.88-1.12-4.7-2.97-4.71-1.78-.01-2.83,1.63-2.89,4.51,0,.08,0,.17,0,.25.03,2.94,1.18,4.83,2.92,4.8,1.68-.03,2.91-2.06,2.94-4.85Z"/>
        <path class="cls-2" d="M405.17,133.52c0,.58,0,1.16,0,1.75q0,4.48-4.29,4.63c-1.78.06-2.99-.88-3.13-2.56-.23-2.89-.17-5.81-.21-8.71,0-.52.16-1.06.83-.98.78.1.77.79.77,1.35-.01,2.16-.12,4.32-.09,6.47.02,1.22-.03,2.86,1.62,2.9,1.74.04,2.93-1.07,2.96-3,.02-1.83-.01-3.66.02-5.48.01-.84-.45-2.18.87-2.15,1.04.02.69,1.25.68,2.05-.02,1.25,0,2.49,0,3.74,0,0-.02,0-.03,0Z"/>
        <path class="cls-2" d="M596.89,128.17c1.85-.31,3.69-1.67,5.51.27.52.55,1.14-.4,1.71-.67,2.1-1.02,4.06-.13,4.22,2.14.21,2.82.1,5.66.11,8.49,0,.51-.07,1.11-.74,1.06-.62-.05-.66-.65-.66-1.16-.01-2.25.02-4.5-.04-6.74-.03-1.11.22-2.61-1.52-2.6-1.54,0-2.45,1.14-2.57,2.57-.16,1.99-.02,3.99-.08,5.99-.02.74.41,2-.78,1.99-1,0-.57-1.2-.59-1.87-.06-2,.04-4-.05-5.99-.11-2.69-.88-3.13-3.45-2.11-.22-.56-1.13-.58-1.08-1.36Z"/>
        <path class="cls-2" d="M622.5,133.3c0-.42,0-.83,0-1.25,0-4.71,0-4.74,4.56-4.69,1.55.02,2.71.66,2.94,2.42.37,2.9.15,5.81.18,8.71,0,.49-.07,1.08-.75,1.06-.64-.02-.75-.59-.75-1.09-.03-2.16.04-4.32-.05-6.48-.05-1.23.4-3.02-1.61-3.04-1.96-.02-2.96,1.35-3.04,3.25-.08,1.82.01,3.66-.04,5.48-.02.66.36,1.76-.77,1.74-.86-.02-.64-1.01-.66-1.63-.03-1.49,0-2.99-.01-4.49Z"/>
        <path class="cls-2" d="M426.02,133.34c0-.33,0-.66,0-1q0-4.43,4.26-4.99c1.65-.22,2.86.48,3.15,2.08.55,3.03.23,6.12.23,9.18,0,.39-.08.9-.66.81-.61-.09-.73-.65-.74-1.13-.04-2.16,0-4.31-.07-6.47-.04-1.32,0-2.94-1.89-2.87-1.69.07-2.69,1.3-2.79,2.97-.12,1.98-.02,3.98-.05,5.97-.01.61.2,1.57-.74,1.53-.89-.04-.67-.99-.68-1.61-.03-1.49,0-2.98,0-4.48Z"/>
        <path class="cls-2" d="M471.44,131.18c-.05-1.6.2-3.55,1.39-5.28,1.52-2.21,4.41-2.9,6.6-1.56.41.25.98.49.81,1.09-.19.66-.74.45-1.23.34-3.94-.84-4.8-.28-5.74,3.54-.45,1.83-.37,3.62.08,5.42.83,3.28,2.45,4.17,5.61,3.07.49-.17,1.01-.49,1.32.05.39.69-.26,1.02-.73,1.35-2.19,1.52-5.47.67-6.91-1.8-1.05-1.79-1.2-3.78-1.19-6.22Z"/>
        <path class="cls-2" d="M356.89,131.5c0,2.03.2,3.62,1.02,5,1.08,1.82,2.62,2.48,4.65,1.49.54-.26,1.23-1,1.66-.06.37.82-.56,1.11-1.08,1.42-2.12,1.29-5.28.52-6.49-1.86-1.91-3.76-2.01-7.7.02-11.47,1.1-2.05,5.07-2.88,6.79-1.61.4.29.88.59.61,1.19-.15.34-.54.4-.86.25-1.6-.76-3.25-1.16-4.63.24-1.58,1.59-1.59,3.75-1.7,5.4Z"/>
        <path class="cls-2" d="M314.16,132.47c0-1.33-.06-2.66.01-3.98.1-1.84.34-3.67-2.52-3.15-.43.08-1.06-.18-1.02-.81.04-.61.64-.75,1.12-.75,2.25,0,4.5.05,6.74.12.48.01,1.12.04,1.12.7,0,.64-.62.79-1.09.71-2.89-.49-2.71,1.32-2.65,3.28.09,2.99.02,5.99-.03,8.99-.01.74.38,1.98-.86,1.92-1.17-.06-.74-1.29-.77-2.04-.06-1.66-.02-3.33-.02-5-.01,0-.03,0-.04,0Z"/>
        <path class="cls-2" d="M377.47,133.49c0-.42,0-.83,0-1.25,0-4.66,0-4.69,4.34-4.87,1.68-.07,3,.61,3.07,2.5.11,2.82.09,5.64.11,8.46,0,.49-.02,1.13-.65,1.14-.81.02-.79-.7-.79-1.27-.02-2.16.02-4.32-.03-6.47-.02-1.21.22-2.76-1.62-2.79-1.73-.03-2.83,1.09-2.97,2.77-.17,2.06-.05,4.15-.07,6.22,0,.64.14,1.6-.7,1.63-.93.03-.67-.96-.69-1.57-.04-1.49-.01-2.99-.01-4.48Z"/>
        <path class="cls-2" d="M551.84,136.64c1.31-2.32,1.53-4.45,2.18-6.43.21-.63.32-1.29.54-1.91.18-.5.57-.87,1.15-.65.59.22.54.74.38,1.25-.97,3.17-1.93,6.35-2.91,9.52-.2.64-.45,1.26-1.34,1.2-.76-.05-.92-.64-1.09-1.17-1.03-3.15-2.03-6.3-3.05-9.45-.16-.5-.28-1.06.29-1.29.86-.35,1.22.35,1.42.98.79,2.48,1.53,4.98,2.43,7.96Z"/>
        <path class="cls-2" d="M390.93,139.9c-.26-.04-.79-.03-1.23-.22-.8-.35-2.16-.69-1.82-1.65.43-1.21,1.36.01,2.04.21,1.4.4,2.76.52,3.41-1.03.66-1.56-.32-2.49-1.7-3.06-1.84-.76-3.85-1.32-3.66-4.01.11-1.53,1.01-2.23,2.27-2.59,1.52-.44,2.99-.19,4.19.9.52.47.2.95-.42,1-.38.03-.77-.25-1.16-.35-1.25-.31-2.67-.6-3.24.87-.63,1.62.81,2.1,1.97,2.59.46.2.92.37,1.37.59,1.76.84,2.37,2.27,1.94,4.12-.45,1.93-1.85,2.64-3.95,2.63Z"/>
        <path class="cls-2" d="M417.08,139.89c-1.62.01-2.57-.8-2.68-2.36-.13-1.82-.04-3.66-.15-5.49-.08-1.2.65-2.74-1.27-3.32-.5-.15-.28-.68.06-.99.12-.1.29-.16.45-.2,1.51-.41.09-2.68,1.47-2.73,1.55-.05.29,1.92,1.22,2.53.25.16.63.16.95.19.51.04,1.12.06,1.13.7.01.66-.6.72-1.1.69-1.4-.07-1.36.88-1.36,1.83,0,1.67-.02,3.33,0,5,.02,1.55-.1,3.25,2.39,2.53.46-.13.88.16.73.68-.27.91-1.11.85-1.83.94Z"/>
        <path class="cls-2" d="M636.49,139.89c-1.84,0-2.63-1.08-2.75-2.66-.12-1.65.03-3.33-.11-4.98-.11-1.25.77-2.89-1.25-3.56-.48-.16-.23-.72.13-.99.26-.19.8-.24.84-.44.66-2.77,1.27-4.74,2.11-.05.03.15.58.25.89.29.51.06,1.12.1,1.15.7.03.64-.6.68-1.09.71-.77.04-1.25.33-1.23,1.19.04,2.24.03,4.48.09,6.72.03.9.35,1.61,1.46,1.63.56,0,1.54-.74,1.59.34.05,1.09-1.11.98-1.84,1.08Z"/>
        <path class="cls-2" d="M329.59,133.56c-.09-1.45.24-2.82.89-4.09.95-1.87,3.46-2.68,5.35-1.75.49.24,1.25.48,1,1.2-.27.78-.9.33-1.46.21-2.4-.51-3.57.32-4,2.74-.22,1.24-.21,2.49.02,3.72.45,2.39,1.73,3.16,4.06,2.49.46-.13.98-.58,1.3.03.37.71-.31,1.03-.78,1.32-1.73,1.06-4.3.31-5.42-1.56-.79-1.33-1.06-2.78-.96-4.31Z"/>
        <path class="cls-2" d="M408.65,130.71c0-2.16-.01-4.32,0-6.47,0-.66,0-1.52.91-1.45.75.06.58.88.58,1.43.02,3.9,0,7.79.02,11.69,0,.95-.27,2.06.96,2.58.39.17.8.39.56.9-.25.56-.81.54-1.3.46-1.5-.26-1.68-1.49-1.72-2.66-.08-2.16-.02-4.32-.02-6.47h0Z"/>
        <path class="cls-2" d="M482.6,130.65c0-1.74-.06-3.48.02-5.22.04-.91-.52-2.48.71-2.53,1.37-.05.78,1.54.79,2.4.07,3.56.02,7.12.04,10.68,0,.87-.27,1.88.75,2.44.43.24,1.05.42.67,1.03-.35.56-1.03.5-1.59.3-1.11-.4-1.39-1.34-1.4-2.4-.02-2.24,0-4.48,0-6.72Z"/>
        <path class="cls-6" d="M569.7,122.71c0,2.32,0,4.55,0,6.78,0,2.32-.03,4.64-.03,6.95,0,.65-.08,1.34.46,1.86.36.35,1.31.21.98,1.09-.07.2-.54.35-.84.36-.72.04-1.31-.26-1.6-.94-.16-.37-.28-.8-.28-1.2-.03-4.55-.04-9.1-.04-13.65,0-.49.08-1.02,1.34-1.26Z"/>
        <path class="cls-6" d="M596.89,128.17c-.05.78.86.79,1.08,1.36-1.65,2.52-.6,5.34-.92,8.01-.08.67.34,1.82-.6,1.86-1.07.05-.67-1.12-.69-1.78-.07-2.82-.1-5.64-.07-8.46,0-.6-.34-2.04,1.19-.99Z"/>
        <path class="cls-2" d="M422.28,133.43c0,1.65.02,3.31-.01,4.96,0,.47-.04,1.08-.71,1.08-.66,0-.74-.59-.75-1.07-.06-3.22-.11-6.44-.11-9.66,0-.47.2-1.04.82-1.05.63,0,.8.55.81,1.04.04,1.57.01,3.14.01,4.71-.02,0-.04,0-.06,0Z"/>
        <path class="cls-6" d="M504.88,136.79c.52-2.35.14-4.72.25-7.09.03-.71-.51-1.75.88-1.84-.04.57-.18,1.16.36,1.6-.03,3.15-.05,6.29-.08,9.44-.3.04-.6.08-.9.13,0,0,0,.01,0,.01-.17-.75-.35-1.5-.52-2.26Z"/>
        <path class="cls-6" d="M499.29,137.4c-.48-2.84-.09-5.7-.23-8.54,0,0,0-.2,0-.2.01-.43.08-.91.6-.9.86.02.73.75.73,1.29,0,2.65-.02,5.29-.04,7.94-.36.14-.72.27-1.07.41Z"/>
        <path class="cls-2" d="M499.29,137.4c.36-.14.72-.27,1.07-.41,1.71,2.09,2.13,2.07,4.52-.19.17.75.35,1.5.52,2.26-.83-.34-1.34.38-2.01.6-2.1.72-3.4,0-4.11-2.26Z"/>
        <path class="cls-5" d="M51.92,174.49c0,.26.01.52.02.78-.75.57-1.55.79-2.53.42.68-.82,1.51-1.18,2.52-1.19Z"/>
        <path class="cls-2" d="M506.37,129.47c-.54-.44-.4-1.03-.36-1.6.71.4.93.91.36,1.6Z"/>
        <path class="cls-2" d="M505.4,139.04c.3-.04.6-.08.9-.13-.09.18-.13.45-.27.51-.34.16-.54-.06-.62-.39Z"/>
        <path class="cls-2" d="M499.06,128.65s0,.2,0,.2c-.05-.06-.11-.12-.16-.19.06,0,.11,0,.17-.01Z"/>
        <path class="cls-1" d="M100.88,96.34c0,1.57,0,3.15,0,4.72-.01,3.83-2.33,6.25-6.2,6.33-3.41.07-6.83.07-10.24,0-3.69-.07-5.96-2.18-6.12-5.86-.16-3.57-.14-7.15-.03-10.72.13-3.79,2.12-5.86,5.93-6.04,3.57-.17,7.17-.18,10.74,0,3.88.2,5.81,2.38,5.92,6.32.05,1.75,0,3.5,0,5.24Z"/>
        <path class="cls-1" d="M541.54,85.69c-.06.63-.04,1.39-.21,2.12-.31,1.36-.17,3.29-1.48,3.78-1.24.46-2.16-1.25-3.02-2.16-1.23-1.29-2-.96-2.97.24-1.16,1.42-2.42,2.75-3.7,4.06-1.28,1.31-2.52,2.34-.3,4.12,1.23.99-.33,1.12-1.02,1.19-5.09.49-10.25-2.67-12.42-7.56-2.5-5.63-1.16-12.87,3.08-16.62,4.26-3.78,10.69-4.45,15.6-1.51,4.6,2.75,6.3,7.09,6.44,12.35Z"/>
        <path class="cls-1" d="M283.69,81.55q-5.3-.02-5.3-5.36,0-3.58,3.54-3.6c1.83-.01,3.66-.12,5.47-.02,3.06.16,4.68,1.72,4.75,4.35.07,2.76-1.54,4.37-4.73,4.62-1.24.1-2.49.02-3.73.02Z"/>
        <path class="cls-1" d="M461.13,81.5q-5.21.07-5.21-5.17c0-.75.04-1.5,0-2.24-.06-1.19.51-1.61,1.65-1.59,2.57.06,5.16-.06,7.72.1,2.82.18,4.41,1.88,4.44,4.41.02,2.54-1.51,4.18-4.37,4.47-1.4.14-2.82.02-4.23.02Z"/>
        <path class="cls-1" d="M663.73,79c.84,2.59,1.66,5.18,2.55,7.75.4,1.16.14,1.59-1.15,1.71-5.2.46-5.25.44-3.66-4.5.54-1.69,1.14-3.37,1.71-5.06.19.03.38.07.56.1Z"/>
        <path class="cls-1" d="M456.2,138.5c-1.64-.1-2.53-1.28-2.5-3.07.03-1.26.51-2.47,1.89-2.9.51-.16,3.75,3.44,3.76,4.07.02.88-1.52,1.91-3.15,1.91Z"/>
        <path class="cls-1" d="M456.27,125.05c1.16.07,1.8.7,1.87,1.88.09,1.42-.71,2.73-1.85,2.9-1.25.19-1.68-1.34-1.81-2.46-.13-1.21.47-2.07,1.78-2.33Z"/>
        <path class="cls-1" d="M442.52,131.45c-.1,1.43-.53,2.65-2.28,2.65-1.67,0-2.33-1.06-2.37-2.59-.04-1.54.56-2.6,2.26-2.63,1.72-.04,2.3,1.03,2.38,2.58Z"/>
        <path class="cls-1" d="M516.11,133.4c0,.28,0,.37,0,.45,0,3.07-.94,4.89-2.55,4.57-2.6-.51-2.52-2.81-2.6-4.76-.12-3.02,1.07-4.92,2.87-4.73,3.1.34,2.06,2.84,2.28,4.47Z"/>
        <path class="cls-1" d="M528.43,131.53c0-1.33.14-2.68-.03-3.99-.31-2.41,1.08-2.42,2.73-2.08,2.33.48,3.53,2.93,3.37,6.76-.15,3.57-1.44,5.51-3.82,5.93-1.57.27-2.39-.08-2.27-1.87.1-1.58.02-3.16.02-4.74Z"/>
        <path class="cls-1" d="M586.04,133.56c0-.75-.07-1.5.02-2.24.19-1.54,1.14-2.36,2.67-2.42,1.48-.06,2.01.99,2.23,2.21.27,1.48.28,2.98.04,4.46-.24,1.46-.74,2.94-2.52,2.85-1.78-.09-2.53-1.36-2.46-3.11.02-.58,0-1.16,0-1.74,0,0,.01,0,.02,0Z"/>
        <path class="cls-1" d="M323.5,133.1c-.87-.5-2.7.81-2.52-1.34.12-1.45.77-2.81,2.55-2.83,1.83-.02,2.39,1.37,2.47,2.83.12,2.11-1.66.86-2.5,1.34Z"/>
        <path class="cls-1" d="M542.32,133.09c-.89-.41-2.53.67-2.43-1.26.08-1.61.81-2.98,2.71-2.91,1.82.07,2.35,1.54,2.33,2.98-.03,2.03-1.8.64-2.61,1.18Z"/>
        <path class="cls-1" d="M561.58,133.16c-.9-.6-2.71.76-2.63-1.32.06-1.45.71-2.84,2.49-2.91,1.81-.07,2.42,1.18,2.55,2.74.18,2.22-1.63.9-2.41,1.49Z"/>
        <path class="cls-1" d="M494.58,132.94c.02,1.57-.06,2.63-.48,3.66-.41.99-1.03,1.8-2.14,1.78-1.21-.02-2.19-.57-2.65-1.86-.57-1.62-.49-3.26-.29-4.9.21-1.77,1.4-2.61,3.05-2.64,1.55-.03,2.01,1.26,2.33,2.49.17.63.15,1.31.17,1.48Z"/>
        <path class="cls-1" d="M615.64,133.17c-.93-.55-2.62.68-2.6-1.18.01-1.51.63-3.03,2.59-3.07,1.86-.04,2.39,1.25,2.46,2.81.1,2.23-1.74.77-2.44,1.44Z"/>
        <path class="cls-1" d="M580.08,133.34c0,3.31-.96,5.04-2.7,5.13-1.85.09-3.04-1.82-3.01-4.89,0-.58.01-1.17.13-1.72.33-1.51.82-2.98,2.75-2.94,2.02.04,2.55,1.5,2.74,3.18.06.49.06.99.07,1.24Z"/>
        <path class="cls-1" d="M372.99,133.62c-.03,2.79-1.26,4.82-2.94,4.85-1.74.03-2.89-1.86-2.92-4.8,0-.08,0-.17,0-.25.06-2.88,1.11-4.53,2.89-4.51,1.86.01,3.01,1.84,2.97,4.71Z"/>
      </g>
    </g>
  </g>
</svg>